<svg width="420" height="420" viewBox="0 0 420 420" fill="none" xmlns="http://www.w3.org/2000/svg">
  <defs>
    <linearGradient id="markBg" x1="42" y1="26" x2="350" y2="380" gradientUnits="userSpaceOnUse">
      <stop stop-color="#FCFDFD"/>
      <stop offset="1" stop-color="#EEF3F8"/>
    </linearGradient>
    <linearGradient id="markInk" x1="208" y1="88" x2="235" y2="320" gradientUnits="userSpaceOnUse">
      <stop stop-color="#444178"/>
      <stop offset="1" stop-color="#202241"/>
    </linearGradient>
  </defs>

  <rect x="28" y="28" width="364" height="364" rx="42" fill="url(#markBg)"/>
  <rect x="28" y="28" width="364" height="364" rx="42" stroke="#D9D5DD"/>

  <ellipse cx="165" cy="126" rx="68" ry="44" fill="#D7F5F9"/>
  <ellipse cx="286" cy="298" rx="58" ry="42" fill="#CDC8DB" fill-opacity="0.92"/>
  <path d="M271 88C316 120 344 173 344 236C344 282 326 323 296 351C263 381 213 393 166 383C120 373 82 343 66 299C48 251 55 197 86 159C118 119 166 83 220 79C238 78 255 81 271 88Z" fill="url(#markInk)"/>
  <path d="M145 211C161 183 194 167 227 169C262 171 294 191 311 220C328 249 329 288 310 313C291 339 255 352 220 350C184 347 148 329 128 299C112 274 112 238 130 214L145 211Z" fill="#8379C6"/>
  <path d="M170 221C186 201 214 193 239 196C267 199 292 218 302 243C313 269 307 298 288 316C268 334 238 339 211 334C183 329 156 312 143 286C131 262 139 234 158 217L170 221Z" fill="#202241" fill-opacity="0.18"/>

  <rect x="92" y="78" width="92" height="58" rx="18" fill="#FCFDFD" fill-opacity="0.92"/>
  <rect x="92" y="78" width="92" height="58" rx="18" stroke="#C9C9D2"/>
  <rect x="110" y="96" width="56" height="8" rx="4" fill="#202241"/>
  <rect x="110" y="112" width="38" height="6" rx="3" fill="#8379C6"/>

  <circle cx="310" cy="106" r="16" fill="#F8D2E2"/>
  <circle cx="326" cy="128" r="6" fill="#D7F5F9"/>
</svg>
